<svg id="SvgjsSvg1001" width="288" height="288" xmlns="http://www.w3.org/2000/svg" version="1.1" xmlns:xlink="http://www.w3.org/1999/xlink" xmlns:svgjs="http://svgjs.com/svgjs"><defs id="SvgjsDefs1002"></defs><g id="SvgjsG1008"><svg xmlns="http://www.w3.org/2000/svg" width="288" height="288" fill="none" viewBox="0 0 24 24"><path fill="#3c4346" d="M7.05022 7.05028C6.65969 7.4408 6.65969 8.07397 7.05022 8.46449L10.5858 12L7.05023 15.5356C6.6597 15.9261 6.6597 16.5593 7.05023 16.9498C7.44075 17.3403 8.07392 17.3403 8.46444 16.9498L12 13.4142L15.5355 16.9498C15.926 17.3403 16.5592 17.3403 16.9497 16.9498C17.3402 16.5592 17.3402 15.9261 16.9497 15.5356L13.4142 12L16.9497 8.46449C17.3402 8.07397 17.3402 7.4408 16.9497 7.05028C16.5592 6.65976 15.926 6.65976 15.5355 7.05028L12 10.5858L8.46443 7.05028C8.07391 6.65975 7.44074 6.65975 7.05022 7.05028Z" class="color000 svgShape"></path></svg></g></svg>