<svg width="544" height="634" viewBox="0 0 544 634" fill="none" xmlns="http://www.w3.org/2000/svg">
<g clip-path="url(#clip0_821_1668)">
<path d="M17.5572 233.529H526.127C530.659 233.523 535.003 231.721 538.207 228.517C541.412 225.312 543.214 220.968 543.219 216.437V17.092C543.214 12.5605 541.412 8.21614 538.207 5.0119C535.003 1.80766 530.659 0.0052324 526.127 0H17.5572C13.0257 0.0052324 8.68134 1.80766 5.47711 5.0119C2.27289 8.21614 0.47052 12.5605 0.465271 17.092V216.437C0.47052 220.968 2.27289 225.312 5.47711 228.517C8.68134 231.721 13.0258 233.523 17.5572 233.529Z" fill="#F2F2F2"/>
<path d="M136.167 222.628H445.4C468.443 222.602 490.535 213.436 506.83 197.142C523.124 180.847 532.29 158.755 532.316 135.712V97.8264C532.29 74.7828 523.124 52.6904 506.83 36.396C490.536 20.1016 468.443 10.9359 445.4 10.9098H98.282C75.2383 10.9359 53.146 20.1016 36.8517 36.396C20.5575 52.6904 11.392 74.7828 11.366 97.8264C11.4034 130.914 24.5641 162.636 47.9608 186.033C71.3574 209.429 103.079 222.59 136.167 222.628Z" fill="white"/>
<path d="M215.937 67.9756H420.343C421.512 67.9756 422.633 67.5112 423.46 66.6845C424.287 65.8579 424.751 64.7367 424.751 63.5676C424.751 62.3985 424.287 61.2773 423.46 60.4506C422.633 59.624 421.512 59.1595 420.343 59.1595H215.937C214.768 59.1595 213.646 59.624 212.82 60.4506C211.993 61.2773 211.529 62.3985 211.529 63.5676C211.529 64.7367 211.993 65.8579 212.82 66.6845C213.646 67.5112 214.768 67.9756 215.937 67.9756Z" fill="#E6E6E6"/>
<path d="M112.462 115.006H420.343C421.512 115.006 422.633 114.542 423.46 113.715C424.287 112.889 424.751 111.767 424.751 110.598C424.751 109.429 424.287 108.308 423.46 107.481C422.633 106.655 421.512 106.19 420.343 106.19H112.462C111.293 106.19 110.172 106.655 109.346 107.481C108.519 108.308 108.054 109.429 108.054 110.598C108.054 111.767 108.519 112.889 109.346 113.715C110.172 114.542 111.293 115.006 112.462 115.006Z" fill="#E6E6E6"/>
<path d="M112.462 162.037H420.343C421.512 162.037 422.633 161.573 423.46 160.746C424.287 159.919 424.751 158.798 424.751 157.629C424.751 156.46 424.287 155.339 423.46 154.512C422.633 153.686 421.512 153.221 420.343 153.221H112.462C111.293 153.221 110.172 153.686 109.346 154.512C108.519 155.339 108.054 156.46 108.054 157.629C108.054 158.798 108.519 159.919 109.346 160.746C110.172 161.573 111.293 162.037 112.462 162.037Z" fill="#E6E6E6"/>
<path d="M112.462 162.037H420.343C421.512 162.037 422.633 161.573 423.46 160.746C424.287 159.919 424.751 158.798 424.751 157.629C424.751 156.46 424.287 155.339 423.46 154.512C422.633 153.686 421.512 153.221 420.343 153.221H112.462C111.293 153.221 110.172 153.686 109.346 154.512C108.519 155.339 108.054 156.46 108.054 157.629C108.054 158.798 108.519 159.919 109.346 160.746C110.172 161.573 111.293 162.037 112.462 162.037Z" fill="#E6E6E6"/>
<path d="M237.507 120.404C237.458 121.732 237.118 123.033 236.512 124.215C235.906 125.398 235.048 126.433 233.998 127.248C232.949 128.063 231.734 128.637 230.438 128.932C229.142 129.226 227.798 129.233 226.499 128.951L209.689 156.529L202.534 141.347L219.595 117.486C220.212 115.336 221.597 113.487 223.486 112.29C225.376 111.092 227.639 110.63 229.847 110.989C232.055 111.349 234.054 112.506 235.466 114.241C236.877 115.977 237.603 118.169 237.507 120.404H237.507Z" fill="#FFB6B6"/>
<path d="M111.355 199.441L169.287 168.017L187.56 150.873C187.56 150.873 195.504 148.746 192.58 146.163C189.656 143.58 197.988 141.089 197.988 141.089L207.798 131.886L221.737 141.749L217.703 148.002C217.703 148.002 217.98 158.354 212.309 156.363C206.638 154.371 208.055 162.957 208.055 162.957L174.205 215.428L111.355 199.441Z" fill="#3F3D56"/>
<path d="M282.364 169.835C251.113 169.835 225.778 144.5 225.778 113.249C225.778 81.997 251.113 56.6626 282.364 56.6626C313.616 56.6626 338.95 81.997 338.95 113.249C338.95 144.5 313.616 169.835 282.364 169.835Z" fill="#6C63FF"/>
<path d="M111.175 611.601H122.941L128.54 566.219H111.175V611.601Z" fill="#FFB6B6"/>
<path d="M104.965 631.987H113.403L114.909 624.021L118.766 631.987H141.145C142.217 631.987 143.262 631.644 144.126 631.008C144.99 630.372 145.628 629.477 145.948 628.453C146.267 627.429 146.25 626.33 145.901 625.316C145.551 624.302 144.886 623.426 144.003 622.816L126.132 610.474V602.421L107.335 603.543L104.965 631.987Z" fill="#2F2E41"/>
<path d="M205.277 611.601H217.043L222.642 566.219H205.277V611.601Z" fill="#FFB6B6"/>
<path d="M199.067 631.987H207.505L209.011 624.021L212.868 631.987H235.247C236.32 631.987 237.364 631.644 238.228 631.008C239.092 630.372 239.731 629.477 240.05 628.453C240.369 627.429 240.353 626.33 240.003 625.316C239.653 624.302 238.988 623.426 238.105 622.816L220.234 610.474V602.421L201.437 603.543L199.067 631.987Z" fill="#2F2E41"/>
<path d="M123.659 268.381H183.044V335.988H123.659V268.381Z" fill="#FFB6B6"/>
<path d="M181.674 301.728L191.724 313.605L209.082 350.15L252.822 454.219L262.072 476.228L254.602 515.135C254.602 515.135 253.392 542.546 253.392 547.033C253.392 556.169 245.751 561.232 245.751 561.232L240.145 590.43L185.785 588.146C185.785 588.146 187.682 555.961 199.067 547.843C210.453 539.724 215.686 497.414 215.686 497.414L221.873 478.642L161.574 407.164L161.185 432.149L160.997 444.243C160.997 444.243 169.827 522.899 159.534 538.164C149.241 553.428 159.324 551.633 159.324 551.633L158.834 583.121L94.4238 583.578L108.634 492.922C108.634 492.922 115.849 487.225 111.988 481.498C108.128 475.771 115.73 468.758 115.73 468.758L112.32 397.985C112.32 397.985 116.096 385.761 111.655 384.172C107.214 382.583 111.072 372.07 111.072 372.07L110.412 358.372L123.659 315.889L181.674 301.728Z" fill="#2F2E41"/>
<path d="M122.746 268.381L116.351 249.195L111.782 242.8L109.955 224.528C109.955 175.193 120.96 183.408 120.96 183.408L127.314 166.056L156.549 165.143L175.279 182.958L190.81 188.44L196.892 220.042L185.785 253.763L183.044 272.036C188.273 281.688 187.83 277.122 183.501 284.369L131.882 298.53C113.61 304.926 113.61 288.481 117.274 284.369C120.938 280.258 122.746 268.381 122.746 268.381Z" fill="#3F3D56"/>
<path d="M145.708 159.01C130.74 159.01 118.606 146.876 118.606 131.908C118.606 116.939 130.74 104.805 145.708 104.805C160.677 104.805 172.811 116.939 172.811 131.908C172.811 146.876 160.677 159.01 145.708 159.01Z" fill="#FFB6B6"/>
<path d="M109.526 168.085C109.271 168.516 109.116 168.998 109.073 169.497C109.03 169.996 109.101 170.499 109.279 170.967C109.457 171.435 109.739 171.857 110.103 172.201C110.466 172.545 110.903 172.802 111.381 172.954C115.017 174.16 117.255 177.678 119.868 180.492C122.472 183.296 126.665 185.626 129.991 183.717C133.307 181.816 133.536 176.965 136.313 174.334C139.017 171.776 143.512 172.086 146.692 174.032L146.787 174.091C147.336 174.449 147.977 174.638 148.632 174.635C149.287 174.632 149.927 174.437 150.473 174.074C151.018 173.711 151.446 173.197 151.702 172.594C151.958 171.991 152.032 171.326 151.914 170.681C150.8 164.757 149.686 158.833 148.574 152.91C151.498 159.954 155.743 166.373 161.081 171.821C162.551 173.518 164.414 174.829 166.508 175.64C168.408 176.243 170.254 174.279 172.099 174.635C167.513 170.624 152.091 144.915 154.85 127.73C158.094 128.096 161.337 128.461 164.58 128.827C164.931 127.292 165.681 125.877 166.755 124.725C166.623 126.218 166.813 127.723 167.312 129.137C168.664 129.293 170.025 129.439 171.377 129.594C173.259 129.804 175.306 129.987 176.923 129C179.618 127.356 179.7 123.464 178.933 120.394C176.686 111.468 169.87 104.004 161.529 100.094C153.187 96.1924 150.721 104.881 141.932 102.104C124.573 96.6219 111.271 105.996 106.584 123.391C102.646 137.981 105.506 153.467 109.526 168.085Z" fill="#2F2E41"/>
<path d="M34.4938 632.576H67.6803L67.8229 632.317C68.2472 631.548 68.6569 630.732 69.0397 629.894C72.4581 622.576 73.9029 614.206 75.1778 606.821L76.1378 601.255C76.2541 600.581 76.1665 599.887 75.8863 599.263C75.6062 598.639 75.1461 598.113 74.5651 597.752C73.984 597.391 73.3085 597.211 72.6249 597.236C71.9412 597.261 71.2806 597.49 70.7276 597.893C65.6842 601.562 60.6388 605.229 55.5914 608.892C53.6803 610.282 51.4977 611.892 49.4073 613.631C49.2057 612.651 48.9947 611.669 48.7838 610.7C48.6383 610.031 48.2966 609.421 47.8023 608.947C47.308 608.474 46.6837 608.159 46.0091 608.042C45.3346 607.925 44.6406 608.013 44.016 608.293C43.3914 608.573 42.8646 609.033 42.503 609.614L38.6202 615.852C35.7882 620.408 33.2887 624.897 33.798 629.739C33.7955 629.798 33.7999 629.857 33.8111 629.915C33.913 630.71 34.102 631.492 34.3746 632.246L34.4938 632.576Z" fill="#F0F0F0"/>
<path d="M1.18433 633.294L316.542 633.601C316.857 633.6 317.158 633.474 317.38 633.25C317.602 633.027 317.727 632.725 317.727 632.411C317.727 632.096 317.602 631.794 317.38 631.571C317.158 631.348 316.857 631.221 316.542 631.22L1.18433 630.913C0.869568 630.914 0.568268 631.04 0.346252 631.263C0.124237 631.487 -0.000366211 631.789 -0.000366211 632.103C-0.000366211 632.418 0.124237 632.72 0.346252 632.943C0.568268 633.166 0.869568 633.292 1.18433 633.294Z" fill="#CACACA"/>
<path d="M287.508 189.409L322.196 160.116C323.382 159.112 324.121 157.679 324.251 156.131C324.382 154.583 323.893 153.047 322.892 151.859L316.508 144.299C315.504 143.113 314.071 142.374 312.523 142.244C310.976 142.113 309.439 142.602 308.251 143.603L273.563 172.897C272.378 173.9 271.638 175.333 271.508 176.881C271.377 178.429 271.866 179.965 272.867 181.153L279.252 188.713C280.255 189.899 281.688 190.638 283.236 190.769C284.784 190.899 286.32 190.41 287.508 189.409Z" fill="#3F3D56"/>
<path d="M320.376 152.468C320.915 153.109 321.179 153.937 321.108 154.771C321.038 155.605 320.64 156.377 320.001 156.918L285.313 186.212C284.673 186.751 283.845 187.014 283.011 186.944C282.176 186.874 281.404 186.475 280.864 185.837L274.479 178.277C273.94 177.636 273.676 176.808 273.747 175.974C273.817 175.14 274.215 174.368 274.854 173.827L309.542 144.533C310.182 143.994 311.01 143.731 311.844 143.801C312.679 143.871 313.451 144.27 313.992 144.908L320.376 152.468Z" fill="white"/>
<path d="M300.012 163.856C300.132 164.025 300.29 164.163 300.473 164.26C300.656 164.356 300.859 164.409 301.066 164.414L306.517 164.539C306.692 164.543 306.866 164.513 307.029 164.449C307.192 164.386 307.342 164.291 307.468 164.17C307.595 164.049 307.697 163.904 307.767 163.744C307.838 163.584 307.876 163.411 307.88 163.236C307.884 163.061 307.854 162.887 307.791 162.724C307.727 162.56 307.633 162.411 307.512 162.285C307.391 162.158 307.246 162.056 307.086 161.986C306.925 161.915 306.753 161.876 306.578 161.872L303.012 161.79L306.524 152.525C306.648 152.194 306.636 151.828 306.491 151.506C306.345 151.184 306.078 150.933 305.748 150.808C305.418 150.683 305.051 150.694 304.729 150.839C304.407 150.983 304.155 151.25 304.029 151.58L299.85 162.608C299.774 162.807 299.747 163.022 299.772 163.234C299.797 163.446 299.871 163.649 299.991 163.826L300.012 163.856Z" fill="#6C63FF"/>
<path d="M299.313 166.185C297.998 166.378 296.742 166.857 295.632 167.588C294.523 168.319 293.587 169.284 292.891 170.416C292.195 171.548 291.756 172.819 291.604 174.139C291.453 175.459 291.592 176.796 292.013 178.056L266.427 197.766L282.297 203.227L304.161 183.673C306.231 182.826 307.919 181.248 308.904 179.24C309.889 177.231 310.102 174.931 309.505 172.775C308.907 170.62 307.54 168.758 305.661 167.543C303.783 166.329 301.524 165.845 299.313 166.185L299.313 166.185Z" fill="#FFB6B6"/>
<path d="M166.104 175.93L231.614 216.208C231.614 216.208 258.026 206.435 252.864 201.911C247.703 197.387 264.135 194.328 264.135 194.328L282.288 182.115L292.822 194.358C292.822 194.358 290.903 214.243 287.637 210.8C284.371 207.356 279.49 216.762 279.49 216.762C279.49 216.762 278.047 227.265 268.751 224.622C259.454 221.979 234.509 249.682 234.509 249.682L153.886 219.613L166.104 175.93Z" fill="#3F3D56"/>
<path d="M272.355 135.948C271.596 135.948 270.847 135.771 270.168 135.431C269.488 135.091 268.898 134.598 268.442 133.99L256.444 117.993C256.059 117.479 255.778 116.894 255.619 116.272C255.459 115.65 255.424 115.002 255.515 114.366C255.606 113.73 255.821 113.118 256.148 112.565C256.476 112.013 256.909 111.53 257.423 111.144C258.461 110.366 259.765 110.032 261.05 110.215C261.686 110.306 262.297 110.521 262.85 110.849C263.403 111.176 263.886 111.609 264.271 112.123L272.121 122.588L292.281 92.3481C293.001 91.2686 294.12 90.5192 295.392 90.2647C296.664 90.0102 297.986 90.2716 299.065 90.9913C300.145 91.711 300.894 92.8301 301.149 94.1023C301.403 95.3746 301.142 96.6958 300.422 97.7754L276.426 133.769C275.992 134.42 275.408 134.958 274.724 135.336C274.039 135.715 273.273 135.924 272.491 135.946C272.446 135.947 272.401 135.948 272.355 135.948Z" fill="white"/>
</g>
<defs>
<clipPath id="clip0_821_1668">
<rect width="543.219" height="633.601" fill="white" transform="matrix(-1 0 0 1 543.219 0)"/>
</clipPath>
</defs>
</svg>
