<svg width="516" height="268" viewBox="0 0 516 268" fill="none" xmlns="http://www.w3.org/2000/svg">
<path d="M122.643 76.9159C122.214 75.3409 121.816 73.8538 121.433 72.4482C121.053 71.0458 120.612 69.7563 120.257 68.5484C119.892 67.3437 119.565 66.2299 119.21 65.2479C118.771 63.9427 118.404 62.8509 118.08 61.9379C115.076 60.5355 93.0803 49.1811 97.5325 20C97.5325 20 128.006 28.9479 118.512 61.7685C118.966 62.6187 119.503 63.6478 120.099 64.8682C121.041 66.7538 122.075 69.0912 123.236 71.7957C123.782 73.1573 124.366 74.6099 124.974 76.1378C125.62 77.6626 125.959 79.3757 126.493 81.1044C126.87 82.4629 127.287 83.8747 127.688 85.3273C128.161 83.8026 128.781 81.7977 129.411 79.7772C129.726 78.7639 130.041 77.7442 130.343 76.7998C130.464 76.4484 130.581 76.1127 130.695 75.7833C115.116 43.2985 137.513 29.726 137.513 29.726C149.535 65.5898 136.426 73.8695 132.079 75.57C131.903 76.0876 131.708 76.6367 131.504 77.2171C131.208 78.1646 130.89 79.1749 130.581 80.1757C129.954 82.1931 129.328 84.2073 128.858 85.7227C128.778 85.9078 128.787 86.1054 128.676 86.2592C128.577 86.4192 128.482 86.5666 128.395 86.7109C128.296 86.8553 128.228 86.9619 128.151 87.0874C128.562 88.8161 128.982 90.5825 129.42 92.4085C129.655 93.4187 129.92 94.4321 130.133 95.4769C130.331 96.5185 130.532 97.5758 130.736 98.6425C131.134 100.782 131.544 102.969 131.961 105.19C132.304 107.456 132.653 109.671 132.943 111.992C133.079 113.09 133.206 114.207 133.335 115.315C133.378 114.995 133.422 114.681 133.499 114.361C133.613 113.777 133.73 113.188 133.848 112.592C134.076 111.409 134.308 110.22 134.527 109.106C134.802 108.005 135.061 106.976 135.283 106.091C135.361 105.877 135.351 105.652 135.447 105.466C135.543 105.275 135.642 105.103 135.722 104.93C135.802 104.776 135.876 104.666 135.953 104.531C134.802 99.019 131.825 76.6869 155.312 62.8069C155.312 62.8069 167.625 92.4618 136.63 105.63C136.627 105.692 136.623 105.749 136.627 105.812C136.617 106.019 136.512 106.213 136.469 106.43C136.25 107.296 136 108.306 135.722 109.385C135.512 110.48 135.277 111.65 135.052 112.827C134.938 113.407 134.823 113.997 134.706 114.571C134.573 115.142 134.518 115.723 134.456 116.269C134.329 117.385 134.218 118.421 134.11 119.306C134.07 119.522 134.113 119.745 134.027 119.939C133.987 120.059 133.943 120.168 133.903 120.284C134.379 124.554 134.851 128.859 135.577 133.107C135.923 135.457 136.451 137.766 136.932 140.072C137.182 141.224 137.525 142.353 137.812 143.479C138.124 144.609 138.393 145.751 138.785 146.846C138.871 147.097 138.948 147.335 139.035 147.589C139.056 147.414 139.075 147.238 139.106 147.053C139.201 146.272 139.347 145.456 139.541 144.618C139.683 143.768 139.976 142.927 140.202 142.049C140.489 141.199 140.779 140.323 141.137 139.479C141.508 138.72 141.826 137.929 142.261 137.205C142.091 137.208 141.943 137.227 141.773 137.233C141.773 137.233 141.15 109.256 169.413 104.19C169.413 104.19 173.266 135.04 143.74 137.117C143.635 137.296 143.533 137.465 143.431 137.641C142.962 138.362 142.66 139.191 142.277 139.972C141.934 140.775 141.662 141.613 141.381 142.428C141.165 143.266 140.887 144.072 140.751 144.888C140.569 145.694 140.427 146.479 140.332 147.232C140.208 147.982 140.162 148.694 140.097 149.353C140.047 149.682 140.1 150.005 140.032 150.303C140.023 150.347 140.017 150.388 140.007 150.435C140.35 151.42 140.702 152.402 141.116 153.35C141.542 154.404 141.956 155.455 142.375 156.497C142.839 157.522 143.336 158.53 143.808 159.527C144.28 160.534 144.75 161.523 145.216 162.508C145.735 163.468 146.25 164.415 146.76 165.35C147.794 167.223 148.754 169.074 149.863 170.784C150.94 172.51 151.978 174.192 152.987 175.826C153.247 176.196 153.497 176.563 153.753 176.931C153.707 176.501 153.67 176.061 153.66 175.619C153.577 173.668 153.864 171.744 154.222 170.329C154.278 170.163 154.259 169.975 154.352 169.834C154.441 169.68 154.531 169.548 154.611 169.42C154.725 169.247 154.821 169.122 154.923 168.987C154.182 166.128 149.501 144.919 170.771 134.541C170.771 134.541 181.599 160.619 155.522 169.137C155.522 169.313 155.522 169.489 155.525 169.702C155.525 169.846 155.531 170.006 155.534 170.169C155.531 170.326 155.436 170.471 155.414 170.64C155.081 171.951 154.812 173.768 154.889 175.578C154.908 176.482 155.025 177.379 155.195 178.201C155.257 178.619 155.383 179.008 155.482 179.378C155.5 179.437 155.516 179.484 155.538 179.535C155.732 179.823 155.93 180.109 156.121 180.394C156.627 181.122 157.124 181.841 157.612 182.54C158.106 183.224 158.625 183.874 159.06 184.561C159.953 185.922 160.802 187.209 161.595 188.42C163.157 190.87 164.649 192.913 165.862 194.61C168.28 198.017 169.632 200 169.632 200C169.632 200 167.989 198.274 165.152 195.206C163.735 193.666 161.993 191.814 160.132 189.565C159.477 188.803 158.789 187.993 158.075 187.162C157.977 187.152 157.896 187.143 157.785 187.13C157.634 187.115 157.467 187.096 157.294 187.074C157.121 187.061 156.979 186.93 156.797 186.879C156.461 186.751 156.112 186.55 155.698 186.465C155.294 186.362 154.861 186.249 154.423 186.136C153.972 186.023 153.524 185.875 153.049 185.781C152.58 185.731 152.092 185.662 151.607 185.599C151.125 185.543 150.644 185.442 150.162 185.467C149.681 185.455 149.205 185.452 148.76 185.449C148.294 185.411 147.862 185.499 147.442 185.521C147.028 185.568 146.63 185.568 146.278 185.643C146.09 185.665 145.929 185.753 145.759 185.737C145.67 185.725 145.596 185.715 145.503 185.709C141.387 188.602 121.828 200.543 99.9469 183.328C99.9469 183.328 122.14 160.829 145.667 184.476C145.8 184.451 145.945 184.448 146.09 184.407C146.469 184.332 146.889 184.322 147.331 184.272C147.776 184.244 148.239 184.165 148.723 184.194C149.205 184.197 149.708 184.206 150.218 184.219C150.724 184.197 151.23 184.3 151.743 184.354C152.255 184.42 152.762 184.489 153.268 184.558C153.768 184.649 154.244 184.799 154.713 184.915C155.176 185.038 155.63 185.157 156.062 185.27C156.272 185.311 156.461 185.386 156.643 185.464C155.763 184.354 154.988 183.083 154.099 181.834C153.08 180.35 152.021 178.807 150.916 177.21C149.897 175.55 148.835 173.843 147.748 172.09C146.618 170.355 145.636 168.463 144.586 166.555C144.07 165.601 143.546 164.635 143.011 163.662C142.764 163.148 142.514 162.621 142.27 162.1C142.199 162.1 142.138 162.094 142.067 162.097C141.937 162.087 141.851 161.975 141.727 161.94C140.804 161.498 139.572 160.911 138.349 160.324C137.117 159.734 135.892 159.145 134.969 158.699C134.891 158.652 134.808 158.633 134.737 158.595C128.645 159.857 107.453 162.295 93.9818 139.143C93.9818 139.143 123.183 126.365 136.33 157.971C137.105 158.341 137.988 158.771 138.868 159.188C139.785 159.625 140.693 160.061 141.483 160.437C141.026 159.474 140.551 158.511 140.106 157.516C139.677 156.446 139.245 155.367 138.809 154.285C137.877 152.139 137.192 149.87 136.423 147.602C136.024 146.482 135.753 145.312 135.425 144.151C135.129 142.987 134.774 141.826 134.518 140.646C134.15 138.886 133.78 137.117 133.456 135.341C133.366 135.168 133.27 135.002 133.196 134.808C132.699 133.797 132.218 132.583 131.52 131.347C130.847 130.105 130.155 128.765 129.38 127.466C127.889 124.843 126.283 122.283 125.07 120.363C124.931 120.115 124.74 119.917 124.638 119.676C124.582 119.544 124.53 119.415 124.477 119.287C121.062 118.885 95.7294 114.901 95.7078 85.1234C95.7078 85.1234 131.56 92.7756 125.092 118.389C125.113 118.415 125.129 118.43 125.15 118.452C125.317 118.622 125.484 118.804 125.666 118.995C125.839 119.193 125.934 119.456 126.104 119.685C127.33 121.612 128.942 124.184 130.445 126.832C131.226 128.137 131.93 129.499 132.61 130.76C132.656 130.851 132.696 130.942 132.746 131.033C132.156 127.083 131.733 123.143 131.294 119.268C131.044 116.924 130.757 114.612 130.482 112.344C130.201 110.075 129.834 107.769 129.51 105.592C129.096 103.405 128.692 101.243 128.293 99.132C128.096 98.0778 127.895 97.0331 127.707 95.9977C127.494 94.9718 127.228 93.9709 127 92.9732C126.57 91.188 126.157 89.4625 125.752 87.7683C125.518 87.3353 125.292 86.8898 124.99 86.4694C124.644 85.9329 124.292 85.3775 123.884 84.8693C123.502 84.3391 123.085 83.8371 122.649 83.3539C122.245 82.8645 121.776 82.4346 121.356 81.9891C120.47 81.1483 119.602 80.3985 118.812 79.8243C118.626 79.6643 118.41 79.5733 118.253 79.4102C118.095 79.2439 117.938 79.0839 117.805 78.9396C117.799 78.927 117.787 78.9239 117.777 78.9113C112.652 79.1404 95.6707 78.3466 93 58.2734C93 58.2734 115.987 55.5877 119.204 78.5505C119.309 78.6415 119.42 78.7356 119.54 78.8109C120.368 79.4164 121.285 80.1977 122.208 81.0793C122.652 81.5467 123.137 81.9954 123.566 82.5162C123.968 82.9617 124.341 83.4292 124.706 83.9155C124.502 83.2064 124.295 82.5099 124.104 81.8197C123.656 80.091 123.091 78.4784 122.643 76.9159Z" fill="url(#paint0_linear_1164_275)"/>
<path opacity="0.5" d="M116.8 199.346C116.8 199.346 145.096 212.061 165.89 237.737C186.683 263.414 258.86 285.657 309.01 247.656C313.785 244.037 317.975 240.802 321.68 237.908C323.535 236.459 325.265 235.099 326.886 233.818C338.705 223.618 351.862 213.55 367.821 212.115C369.596 211.957 371.403 211.903 373.251 211.969C375.273 212.039 377.311 212.064 379.352 212.045C381.402 212.051 383.462 212.029 385.532 212.055C391.636 213.128 397.765 213.074 403.623 211.982C405.575 211.619 407.496 211.136 409.379 210.546C413.606 209.217 417.774 207.658 421.666 205.613C422.967 204.932 424.236 204.196 425.476 203.398C426.941 202.483 428.34 201.476 429.669 200.39C431.001 199.302 432.264 198.134 433.457 196.894C434.776 195.445 436.039 193.943 437.245 192.393C438.45 190.841 439.602 189.241 440.744 187.59C444.716 182.866 448.032 177.684 450.545 172.202C451.383 170.371 452.13 168.509 452.836 166.594C453.424 165.009 454.019 163.419 454.589 161.816C455.158 160.209 455.709 158.594 456.215 156.956C456.978 154.974 457.573 152.985 458.016 150.991C458.459 149 458.75 147.002 458.908 145.007C459.956 124.178 452.038 101.835 435.21 89.0436C433.707 87.8444 432.163 86.7146 430.58 85.651C419.492 78.2157 406.487 74.1635 392.895 73.545C391.003 73.2073 389.13 72.8065 387.269 72.3489C372.399 68.688 358.188 61.2811 344.632 54.9441C343.432 54.2592 342.249 53.587 341.069 52.918C336.357 50.2481 331.711 47.6666 326.731 45.085C325.088 44.1919 323.595 43.1505 322.266 41.7966C320.943 40.5815 319.788 39.2024 318.816 37.6371C317.968 36.2706 317.184 34.8851 316.418 33.4965C315.652 32.1079 314.908 30.7193 314.155 29.3497C312.336 25.4616 309.969 21.8323 307.159 18.6291C305.754 17.029 304.235 15.5331 302.608 14.1666C301.529 13.3366 300.422 12.5571 299.289 11.8344C297.64 10.8718 296.004 9.8872 294.355 8.95936C276.394 0.993852 255.636 -2.13365 236.32 1.51142C234.371 1.99427 232.431 2.49291 230.51 3.04519C226.662 4.15291 222.871 5.49417 219.16 7.02795C217.156 7.73802 215.217 8.5554 213.343 9.50218C200.224 16.098 190.373 28.8542 188.101 43.9394C187.971 45.7793 188.047 47.6666 188.167 49.5443C188.25 50.7972 188.351 52.0438 188.417 53.2778C187.927 63.7017 181.209 72.1627 173.969 79.4339C172.522 80.8888 171.051 82.2963 169.608 83.6597C168.861 84.7011 167.814 85.2976 166.769 85.8941C151.982 94.6833 135.106 98.2557 123.904 111.81C117.183 119.855 114.943 130.13 111.838 139.816C111.484 141.072 111.152 142.331 110.845 143.593C105.924 163.798 107.066 184.671 116.797 195.309" fill="#DCE8F6"/>
<path d="M363.812 121.109C377.471 111.654 371.843 92.4028 369.986 78.7442C369.702 75.3978 369.311 72.109 368.905 69C371.056 70.8128 373.094 72.8502 374.967 75.0609C376.633 76.9892 378.224 79.0779 379.678 81.2886C388.407 94.0103 394.347 114.224 381.841 126.416C377.152 131.229 368.398 133.154 363.083 127.7C360.276 124.167 363.812 121.109 363.812 121.109Z" fill="url(#paint1_linear_1164_275)"/>
<path d="M366.357 226H134.028C134.028 226 105.102 164.142 145.506 142.899C185.91 121.655 196.929 127.277 196.011 93.5373C195.093 59.7974 224.528 56.8414 241.058 67.4631C257.585 78.0847 262.587 87.2905 288.3 71.044C314.013 54.7974 350.745 57.2974 349.827 109.159C348.909 161.017 362.223 159.145 372.783 167.267C383.346 175.389 396.66 203.507 366.357 226Z" fill="url(#paint2_linear_1164_275)"/>
<path opacity="0.6" d="M149.644 211H332.124C332.124 211 354.843 163.099 323.109 146.648C291.372 130.198 282.717 134.552 283.438 108.423C284.159 82.2964 261.039 80.0046 248.056 88.2299C235.074 96.4552 231.148 103.582 210.952 91.002C190.756 78.4224 161.905 80.3562 162.626 120.516C163.347 160.675 152.89 159.225 144.595 165.513C136.301 171.807 125.841 193.579 149.644 211Z" fill="url(#paint3_linear_1164_275)"/>
<path d="M225.71 126.177C202.208 124.941 198 130.589 198 130.589L247.033 157L255 132.828L225.71 126.177Z" fill="url(#paint4_linear_1164_275)"/>
<path d="M221.045 93.6044H228.56C231.484 93.6044 233.888 91.0246 233.888 88.0971V62.1508C233.888 59.2233 231.484 56.6151 228.56 56.6151H162.622C159.697 56.6151 156.816 59.2233 156.816 62.1508V88.0971C156.816 91.0246 159.697 93.6044 162.622 93.6044H206.674C211.399 100.56 220.306 103.266 227.173 103.266C227.378 103.266 220.104 98.9789 221.045 93.6044Z" fill="#409DE0"/>
<path d="M171.539 133.939L156.798 119.301L171.539 104.663L186.283 119.301L171.539 133.939Z" fill="#4A1449"/>
<path d="M182.271 134.198H160.11V106.133H178.43L182.271 109.918V134.198Z" fill="url(#paint5_linear_1164_275)"/>
<path d="M156.708 136.537H186.193V127.919H156.796L156.708 136.537Z" fill="url(#paint6_linear_1164_275)"/>
<path d="M167.633 125.687L156.708 119.301V136.537L171.452 127.919L167.633 125.687Z" fill="#FCB73E"/>
<path d="M175.268 125.687L171.452 127.919L186.193 136.537V119.301L175.268 125.687Z" fill="url(#paint7_linear_1164_275)"/>
<path d="M178.43 106.105L182.27 109.918H178.43V106.105Z" fill="white"/>
<path d="M179.39 114.537H164.081C163.79 114.537 163.557 114.303 163.557 114.018C163.557 113.73 163.79 113.5 164.081 113.5H179.39C179.681 113.5 179.915 113.734 179.915 114.018C179.915 114.303 179.681 114.537 179.39 114.537Z" fill="white"/>
<path d="M179.39 117.654H164.081C163.79 117.654 163.557 117.42 163.557 117.135C163.557 116.848 163.79 116.614 164.081 116.614H179.39C179.681 116.614 179.915 116.848 179.915 117.135C179.915 117.423 179.681 117.654 179.39 117.654Z" fill="white"/>
<path d="M179.39 120.774H164.081C163.79 120.774 163.557 120.54 163.557 120.256C163.557 119.968 163.79 119.737 164.081 119.737H179.39C179.681 119.737 179.915 119.971 179.915 120.256C179.915 120.54 179.681 120.774 179.39 120.774Z" fill="white"/>
<path d="M280.46 57.2409V52.2964H276.506C276.177 50.6429 275.53 49.1065 274.626 47.7533L277.422 44.9554L273.928 41.4588L271.133 44.2567C269.781 43.3526 268.246 42.7013 266.594 42.3757V38.4175H261.654V42.3757C260.002 42.7045 258.467 43.3526 257.115 44.2567L254.32 41.4588L250.827 44.9554L253.622 47.7533C252.719 49.1065 252.068 50.6429 251.743 52.2964H247.788V57.2409H251.743C252.071 58.8944 252.719 60.4309 253.625 61.784L250.83 64.5819L254.323 68.0785L257.118 65.2806C258.47 66.1848 260.005 66.836 261.657 67.1648V71.123H266.597V67.1648C268.249 66.836 269.784 66.1879 271.136 65.2806L273.931 68.0785L277.425 64.5819L274.629 61.784C275.533 60.4309 276.183 58.8944 276.509 57.2409H280.46ZM264.124 61.7777C260.258 61.7777 257.122 58.6383 257.122 54.7687C257.122 50.899 260.255 47.7597 264.124 47.7597C267.99 47.7597 271.127 50.8959 271.127 54.7687C271.127 58.6383 267.99 61.7777 264.124 61.7777Z" fill="url(#paint8_linear_1164_275)"/>
<path d="M267.27 54.7687C267.27 56.5075 265.862 57.9176 264.124 57.9176C262.387 57.9176 260.979 56.5075 260.979 54.7687C260.979 53.0299 262.387 51.6199 264.124 51.6199C265.862 51.6199 267.27 53.0299 267.27 54.7687Z" fill="url(#paint9_linear_1164_275)"/>
<path d="M350.299 96.3865C360.444 86.2318 360.444 69.77 350.299 59.6153C340.154 49.4606 323.707 49.4606 313.562 59.6153C303.417 69.77 303.417 86.2318 313.562 96.3865C323.707 106.541 340.154 106.541 350.299 96.3865ZM317.179 63.2384C325.325 55.0849 338.534 55.0849 346.679 63.2384C354.825 71.3918 354.825 84.6132 346.679 92.7666C338.534 100.92 325.325 100.92 317.179 92.7666C309.033 84.61 309.033 71.3918 317.179 63.2384Z" fill="#D1E5F6"/>
<path d="M348.479 75.8242C348.479 87.3573 339.139 96.7027 327.617 96.7027C316.098 96.7027 306.755 87.3542 306.755 75.8242C306.755 64.2911 316.095 54.9426 327.617 54.9426C339.139 54.9426 348.479 64.2911 348.479 75.8242Z" fill="white"/>
<path d="M328.35 53.0489H326.885V61.1549H328.35V53.0489Z" fill="url(#paint10_linear_1164_275)"/>
<path d="M328.35 90.4904H326.885V98.5964H328.35V90.4904Z" fill="url(#paint11_linear_1164_275)"/>
<path d="M350.371 75.0908H342.272V76.5577H350.371V75.0908Z" fill="url(#paint12_linear_1164_275)"/>
<path d="M312.965 75.0908H304.866V76.5577H312.965V75.0908Z" fill="url(#paint13_linear_1164_275)"/>
<path d="M327.618 49.8242C313.271 49.8242 301.642 61.4648 301.642 75.8243C301.642 90.1837 313.271 101.824 327.618 101.824C341.964 101.824 353.593 90.1837 353.593 75.8243C353.593 61.4648 341.964 49.8242 327.618 49.8242ZM327.618 96.7027C316.098 96.7027 306.755 87.3542 306.755 75.8243C306.755 64.2912 316.095 54.9427 327.618 54.9427C339.14 54.9427 348.48 64.2912 348.48 75.8243C348.48 87.3542 339.14 96.7027 327.618 96.7027Z" fill="url(#paint14_linear_1164_275)"/>
<path d="M331.948 82.7637L326.979 76.0361V65.0499H328.256V75.6124L332.974 82.0018L331.948 82.7637Z" fill="#2E3168"/>
<path d="M322.325 83.5162C322.223 83.5162 322.119 83.4845 322.031 83.4182C321.822 83.2569 321.781 82.9566 321.942 82.7448L327.489 75.5303C327.65 75.3216 327.95 75.2805 328.162 75.4417C328.373 75.603 328.408 75.9033 328.25 76.1151L322.704 83.3296C322.612 83.4529 322.467 83.5162 322.325 83.5162Z" fill="url(#paint15_linear_1164_275)"/>
<path d="M259.35 162L264 136.01C264 136.01 251.338 129.413 236.496 127.581C235.302 127.432 234.042 127.235 232.733 127L226 153.213L259.35 162Z" fill="url(#paint16_linear_1164_275)"/>
<path d="M240 208H320C320 208 315.407 160.95 294.888 140.095C270.852 115.665 246.814 139.199 246.814 139.199C246.814 139.199 260.924 171.355 240 208Z" fill="url(#paint17_linear_1164_275)"/>
<path d="M268 136C268 136 259.283 165.769 250.052 158.998L248 142.984" fill="#BCBEC0"/>
<path d="M249 143.936L258.186 144C258.186 144 270.789 140.797 267.431 132.829C264.073 124.858 250.141 127.378 250.141 127.378" fill="url(#paint18_linear_1164_275)"/>
<path d="M262.987 142.499C263.301 142.08 257.653 126.468 256.511 123.576C255.37 120.684 246.723 120.196 246.723 120.196L201.936 115C196.997 115.003 192.997 118.959 193 123.836C193.003 128.712 197.01 132.662 201.949 132.659L245.591 129.35C249.338 128.568 251.519 135.826 252.257 137.973C252.996 140.124 256.375 139.366 256.375 139.366C256.375 139.366 256.765 139.76 258.052 142.662C259.345 145.557 262.674 142.915 262.987 142.499Z" fill="url(#paint19_linear_1164_275)"/>
<path d="M263.527 129.114C262.523 139.765 255.694 142.405 247.858 141.665C240.018 140.925 227.902 136.114 228.906 125.463C229.911 114.812 242.125 106.427 249.964 107.167C257.801 107.907 264.532 118.463 263.527 129.114Z" fill="#2E3168"/>
<path d="M235.441 139.87C235.441 139.87 248.6 153.145 253.524 152.885C258.448 152.623 263.252 143.998 261.711 135.32C261.711 135.32 265.438 134.106 264.247 129.234C262.219 120.929 256.976 127.789 256.976 127.789L251.231 123.313C251.234 123.313 224.68 130.866 235.441 139.87Z" fill="url(#paint20_linear_1164_275)"/>
<path d="M245.094 130.744C245.094 130.744 227.867 149.054 212 123.023C212 123.023 222.88 121.659 227.335 111.932C232.907 99.7653 260.586 98.7478 258.929 116.921" fill="#2E3168"/>
<path d="M248 145.848C248 145.848 254.797 142.067 257 145.322L250.113 149" fill="white"/>
<path d="M318.272 174L298.176 179.084L307.892 198.325L283.889 199.001L263.342 198.806C263.342 198.806 248.696 204.882 247.804 205.576C246.911 206.271 246.197 210.784 246.197 210.784C246.197 210.784 245.126 210.957 247.982 211.133C250.84 211.305 261.02 212 261.02 212C261.02 212 272.42 210.358 274.205 210.182C275.462 210.058 330.5 211.565 333.715 208.888C335.849 207.101 325.536 189.163 318.272 174Z" fill="url(#paint21_linear_1164_275)"/>
<path d="M302.485 184C302.485 184 300 179.159 300 178.809C300 171.348 311.617 168.413 319.011 173.657L321 177.609L302.485 184Z" fill="#BCBEC0"/>
<path d="M188.854 207.845C188.854 209.764 190.338 211.202 192.448 211.202H263.427C265.54 211.202 267.359 209.764 267.359 207.845V207.645C267.359 205.726 265.537 204.218 263.427 204.218H192.448C190.338 204.218 188.854 205.726 188.854 207.645V207.845Z" fill="#204283"/>
<path d="M185.733 197.371C186.74 202.113 191.396 206.153 196.134 206.153H239.014C243.752 206.153 246.775 202.113 245.767 197.371L238.973 165.553C237.966 160.811 233.31 157.15 228.575 157.15H185.692C180.957 157.15 177.931 160.814 178.939 165.553L185.733 197.371Z" fill="white"/>
<path d="M181.612 197.371C182.619 202.113 187.275 206.153 192.013 206.153H234.893C239.631 206.153 242.654 202.113 241.646 197.371L234.852 165.553C233.845 160.811 229.189 157.15 224.454 157.15H181.571C176.833 157.15 173.81 160.814 174.818 165.553L181.612 197.371Z" fill="url(#paint22_linear_1164_275)"/>
<path d="M200.437 181.253C200.437 184.617 203.162 187.346 206.523 187.346C209.887 187.346 212.61 184.617 212.61 181.253C212.61 177.886 209.884 175.158 206.523 175.158C203.162 175.158 200.437 177.886 200.437 181.253Z" fill="white"/>
<path d="M287.359 138.361C273.434 142.414 297.325 182 297.325 182L319 174.267C315.175 165.484 301.287 134.309 287.359 138.361Z" fill="url(#paint23_linear_1164_275)"/>
<path d="M229 108.279C229.304 107.702 231.544 102.471 232.562 103.044C233.579 103.62 235.055 107.575 232.866 110" fill="url(#paint24_linear_1164_275)"/>
<path d="M218.905 120.888C218.905 120.888 224.405 121.866 226.894 124.429C229.384 126.992 234.361 120.158 235.408 119.18C236.455 118.203 238.028 115.273 236.062 112.71C234.099 110.147 226.763 108.44 225.847 109.17C224.931 109.903 215.764 118.081 218.512 120.399" fill="url(#paint25_linear_1164_275)"/>
<path d="M176.013 77.8501V79H170.366V77.8501H176.013ZM170.651 68.3359V79H169.238V68.3359H170.651ZM175.266 72.9209V74.0708H170.366V72.9209H175.266ZM175.939 68.3359V69.4932H170.366V68.3359H175.939ZM177.763 68.3359H181.293C182.094 68.3359 182.771 68.458 183.322 68.7021C183.879 68.9463 184.301 69.3076 184.589 69.7861C184.882 70.2598 185.029 70.8433 185.029 71.5366C185.029 72.0249 184.929 72.4717 184.729 72.877C184.533 73.2773 184.25 73.6191 183.879 73.9023C183.513 74.1807 183.073 74.3882 182.561 74.5249L182.165 74.6787H178.847L178.833 73.5288H181.337C181.845 73.5288 182.268 73.4409 182.604 73.2651C182.941 73.0845 183.195 72.8428 183.366 72.54C183.537 72.2373 183.623 71.9028 183.623 71.5366C183.623 71.1265 183.542 70.7676 183.381 70.46C183.22 70.1523 182.966 69.9155 182.619 69.7495C182.277 69.5786 181.835 69.4932 181.293 69.4932H179.177V79H177.763V68.3359ZM183.996 79L181.403 74.166L182.875 74.1587L185.505 78.9121V79H183.996ZM187.006 68.3359H190.537C191.337 68.3359 192.014 68.458 192.565 68.7021C193.122 68.9463 193.544 69.3076 193.833 69.7861C194.125 70.2598 194.272 70.8433 194.272 71.5366C194.272 72.0249 194.172 72.4717 193.972 72.877C193.776 73.2773 193.493 73.6191 193.122 73.9023C192.756 74.1807 192.316 74.3882 191.804 74.5249L191.408 74.6787H188.09L188.076 73.5288H190.581C191.088 73.5288 191.511 73.4409 191.848 73.2651C192.185 73.0845 192.438 72.8428 192.609 72.54C192.78 72.2373 192.866 71.9028 192.866 71.5366C192.866 71.1265 192.785 70.7676 192.624 70.46C192.463 70.1523 192.209 69.9155 191.862 69.7495C191.521 69.5786 191.079 69.4932 190.537 69.4932H188.42V79H187.006V68.3359ZM193.239 79L190.646 74.166L192.119 74.1587L194.748 78.9121V79H193.239ZM204.46 73.3311V74.0049C204.46 74.8057 204.36 75.5234 204.16 76.1582C203.959 76.793 203.671 77.3325 203.295 77.7769C202.919 78.2212 202.468 78.5605 201.94 78.7949C201.418 79.0293 200.832 79.1465 200.183 79.1465C199.553 79.1465 198.974 79.0293 198.447 78.7949C197.924 78.5605 197.47 78.2212 197.084 77.7769C196.704 77.3325 196.408 76.793 196.198 76.1582C195.988 75.5234 195.883 74.8057 195.883 74.0049V73.3311C195.883 72.5303 195.986 71.8149 196.191 71.1851C196.401 70.5503 196.696 70.0107 197.077 69.5664C197.458 69.1172 197.91 68.7754 198.432 68.541C198.959 68.3066 199.538 68.1895 200.168 68.1895C200.817 68.1895 201.403 68.3066 201.926 68.541C202.453 68.7754 202.905 69.1172 203.281 69.5664C203.662 70.0107 203.952 70.5503 204.152 71.1851C204.357 71.8149 204.46 72.5303 204.46 73.3311ZM203.061 74.0049V73.3164C203.061 72.6816 202.995 72.1201 202.863 71.6318C202.736 71.1436 202.548 70.7334 202.299 70.4014C202.05 70.0693 201.745 69.8179 201.384 69.647C201.027 69.4761 200.622 69.3906 200.168 69.3906C199.729 69.3906 199.331 69.4761 198.974 69.647C198.623 69.8179 198.32 70.0693 198.066 70.4014C197.817 70.7334 197.624 71.1436 197.487 71.6318C197.351 72.1201 197.282 72.6816 197.282 73.3164V74.0049C197.282 74.6445 197.351 75.2109 197.487 75.7041C197.624 76.1924 197.819 76.605 198.073 76.9419C198.332 77.2739 198.637 77.5254 198.989 77.6963C199.345 77.8672 199.743 77.9526 200.183 77.9526C200.642 77.9526 201.049 77.8672 201.406 77.6963C201.762 77.5254 202.062 77.2739 202.307 76.9419C202.556 76.605 202.744 76.1924 202.871 75.7041C202.998 75.2109 203.061 74.6445 203.061 74.0049ZM206.577 68.3359H210.107C210.908 68.3359 211.584 68.458 212.136 68.7021C212.692 68.9463 213.115 69.3076 213.403 69.7861C213.696 70.2598 213.842 70.8433 213.842 71.5366C213.842 72.0249 213.742 72.4717 213.542 72.877C213.347 73.2773 213.063 73.6191 212.692 73.9023C212.326 74.1807 211.887 74.3882 211.374 74.5249L210.979 74.6787H207.661L207.646 73.5288H210.151C210.659 73.5288 211.081 73.4409 211.418 73.2651C211.755 73.0845 212.009 72.8428 212.18 72.54C212.351 72.2373 212.436 71.9028 212.436 71.5366C212.436 71.1265 212.355 70.7676 212.194 70.46C212.033 70.1523 211.779 69.9155 211.433 69.7495C211.091 69.5786 210.649 69.4932 210.107 69.4932H207.99V79H206.577V68.3359ZM212.81 79L210.217 74.166L211.689 74.1587L214.318 78.9121V79H212.81Z" fill="white"/>
<path d="M98.9059 215.997C97.1964 215.997 95.7218 215.365 94.4819 214.099C93.239 212.836 92.619 211.334 92.619 209.593V185.406H19.2869C17.5774 185.406 16.1027 184.778 14.8629 183.509C13.6199 182.246 13 180.744 13 179.002V153.865C13 149.758 14.0082 146.358 16.0276 143.669L85.6371 54.2671C87.0335 52.529 88.314 51.3841 89.4787 50.8292C90.6434 50.2775 92.2308 50 94.2502 50H129.404C131.11 50 132.582 50.6347 133.828 51.8976C135.068 53.1637 135.691 54.6658 135.691 56.4039V147.465H155.713C157.419 147.465 158.891 148.099 160.137 149.362C161.377 150.631 162 152.13 162 153.868V179.006C162 180.747 161.377 182.246 160.137 183.512C158.894 184.778 157.419 185.409 155.713 185.409H135.691V209.596C135.691 211.337 135.068 212.84 133.828 214.102C132.585 215.369 131.11 216 129.404 216H98.9059V215.997ZM93.7837 147.461V103.83L59.7946 147.461H93.7837Z" fill="white" stroke="#409DE0" stroke-width="4" stroke-miterlimit="10"/>
<path d="M86.4825 215.997C84.7615 215.997 83.277 215.365 82.0288 214.099C80.7775 212.836 80.1534 211.334 80.1534 209.593V185.406H6.32906C4.60811 185.406 3.12671 184.778 1.87539 183.509C0.620929 182.243 0 180.744 0 179.002V153.865C0 149.758 1.01492 146.358 3.04791 143.669L73.1246 54.2671C74.5304 52.529 75.8195 51.3841 76.992 50.8292C78.1645 50.2775 79.7657 50 81.7956 50H117.185C118.903 50 120.385 50.6347 121.639 51.8976C122.887 53.1637 123.514 54.6658 123.514 56.4039V147.465H143.671C145.389 147.465 146.87 148.099 148.125 149.362C149.373 150.631 150 152.13 150 153.868V179.006C150 180.747 149.373 182.246 148.125 183.512C146.873 184.778 145.389 185.409 143.671 185.409H123.514V209.596C123.514 211.337 122.887 212.84 121.639 214.102C120.388 215.369 118.903 216 117.185 216H86.4825V215.997ZM81.3259 147.461V103.83L47.1086 147.461H81.3259Z" fill="url(#paint26_linear_1164_275)"/>
<path d="M449.474 214.964C447.75 214.964 446.262 214.338 445.011 213.083C443.757 211.831 443.132 210.342 443.132 208.616V184.639H369.149C367.424 184.639 365.937 184.016 364.686 182.758C363.432 181.506 362.807 180.017 362.807 178.291V153.372C362.807 149.3 363.824 145.93 365.861 143.265L436.085 54.6391C437.494 52.9161 438.786 51.7811 439.961 51.231C441.136 50.6841 442.74 50.4091 444.774 50.4091H480.238C481.96 50.4091 483.444 51.0382 484.701 52.2901C485.952 53.5453 486.581 55.0343 486.581 56.7573V147.027H506.78C508.501 147.027 509.986 147.656 511.243 148.908C512.493 150.166 513.122 151.652 513.122 153.375V178.294C513.122 180.02 512.493 181.506 511.243 182.761C509.989 184.016 508.501 184.642 506.78 184.642H486.581V208.619C486.581 210.345 485.952 211.834 484.701 213.086C483.447 214.341 481.96 214.967 480.238 214.967H449.474V214.964ZM444.31 147.024V103.772L410.021 147.027H444.31V147.024Z" fill="white" stroke="#409DE0" stroke-width="4" stroke-miterlimit="10"/>
<path d="M437.194 214.964C435.469 214.964 433.982 214.338 432.731 213.083C431.477 211.831 430.851 210.342 430.851 208.616V184.639H356.869C355.144 184.639 353.656 184.016 352.406 182.758C351.152 181.506 350.526 180.017 350.526 178.291V153.372C350.526 149.3 351.543 145.93 353.581 143.265L423.805 54.6391C425.213 52.9161 426.505 51.7811 427.68 51.231C428.855 50.6841 430.46 50.4091 432.494 50.4091H467.958C469.679 50.4091 471.164 51.0382 472.421 52.2901C473.672 53.5453 474.3 55.0343 474.3 56.7573V147.027H494.499C496.221 147.027 497.705 147.656 498.962 148.908C500.213 150.166 500.842 151.652 500.842 153.375V178.294C500.842 180.02 500.213 181.506 498.962 182.761C497.708 184.016 496.221 184.642 494.499 184.642H474.3V208.619C474.3 210.345 473.672 211.834 472.421 213.086C471.167 214.341 469.679 214.967 467.958 214.967H437.194V214.964ZM432.026 147.024V103.772L397.737 147.027H432.026V147.024Z" fill="url(#paint27_linear_1164_275)"/>
<path d="M348.393 204.263C348.393 204.263 348.899 198.114 348.16 190.646C347.417 183.182 348.201 182.6 352.588 175.272C356.972 167.94 355.355 164.475 357.986 158.81C360.617 153.145 359.464 154.741 364.796 150.347C370.127 145.955 376.179 146.714 378.049 140.771C378.049 140.771 376.182 153.043 374.268 160.697C372.354 168.351 372.01 171.68 367.897 175.079C363.788 178.478 362.541 180.33 361.46 188.857C360.38 197.39 354.028 204.579 351.858 205.805C349.685 207.035 348.393 204.263 348.393 204.263Z" fill="#2E3168"/>
<path d="M349.961 202.824L356.369 182.037C356.369 182.037 358.991 171.804 357.829 169.357C356.666 166.913 350.801 159.101 349.853 155.595C348.909 152.089 349.234 147.738 349.458 142.538C349.683 137.337 344.462 124.966 344.253 123.265C344.045 121.565 343.163 135.466 340.239 140.394C337.311 145.323 333.865 146.009 334.964 151.475C336.066 156.945 332.026 161.924 331.221 165.901C330.419 169.878 329.127 177.624 332.92 187.504C336.717 197.38 340.447 208.717 344.578 210.105C348.716 211.496 349.85 204.734 349.961 202.824Z" fill="url(#paint28_linear_1164_275)"/>
<path d="M340.393 206.539C340.393 206.539 344.768 199.1 342.67 194.797C340.573 190.497 336.123 191.342 335.864 183.264C335.601 175.186 337.752 174.039 335.617 170.021C333.482 166.002 326.454 159.872 317.105 161.241C307.715 162.62 302.004 177.045 302.004 177.045C302.004 177.045 309.945 167.469 314.196 170.621C318.447 173.773 318.046 174.292 317.961 177.441C317.879 180.593 322.888 185.566 325.902 187.975C328.918 190.384 326.416 192.119 326.868 198.784C327.313 205.454 334.73 208.954 340.393 206.539Z" fill="#2E3168"/>
<path d="M345.485 203.712C345.485 203.671 345.425 199.682 344.727 196.087C344.26 193.678 343.745 187.807 343.249 182.126C342.981 179.053 342.703 175.876 342.434 173.29C342.096 169.998 341.84 168.111 341.591 166.287C341.281 164.004 340.991 161.851 340.561 157.223C339.787 148.813 345.122 141.943 345.122 141.943C345.078 142.013 340.605 149.025 341.357 157.15C341.78 161.763 342.074 163.909 342.38 166.179C342.627 168.01 342.886 169.904 343.227 173.207C343.495 175.8 343.773 178.98 344.042 182.056C344.538 187.715 345.049 193.57 345.511 195.932C346.224 199.603 345.485 203.712 345.485 203.712Z" fill="url(#paint29_linear_1164_275)"/>
<path d="M350.491 201.718C351.556 196.871 359.36 172.705 361.72 169.591C363.972 166.619 369.781 153.122 369.837 152.986C369.837 152.986 364.664 167.023 362.358 170.074C360.166 172.967 350.491 201.718 350.491 201.718Z" fill="url(#paint30_linear_1164_275)"/>
<path d="M360.545 205.205H327.696V210.895H360.545V205.205Z" fill="#2E3168"/>
<path d="M366 214.5C366 216.983 364.167 219 361.904 219H180.093C177.833 219 176 216.986 176 214.5C176 212.014 177.833 210 180.093 210H361.904C364.167 210 366 212.014 366 214.5Z" fill="#409DE0"/>
<path d="M304.821 107.425C304.821 115.945 297.923 122.85 289.411 122.85C280.898 122.85 274 115.942 274 107.425C274 98.9047 280.901 92 289.411 92C297.923 91.9968 304.821 98.9047 304.821 107.425Z" fill="white"/>
<path d="M274.609 123.068L276.135 111.794L287.054 110.944L285.98 120.921L274.609 123.068Z" fill="white"/>
<path d="M290.769 105.036C288.45 106.664 285.26 108.561 284.385 111.46C283.662 113.857 285.225 116.06 287.127 117.369C288.337 118.2 291.043 119.557 292.225 117.97C293.422 116.364 292.035 113.31 291.514 111.697" stroke="#2E3168" stroke-miterlimit="10" stroke-linecap="round" stroke-linejoin="round"/>
<path d="M284.128 112.804C286.892 109.857 291.134 104.23 295.71 104.34C299.077 104.423 299.633 108.305 298.477 110.799C297.283 113.376 294.137 115.304 291.367 113.942C288.518 112.541 288.196 108.798 287.912 106.025" stroke="#2E3168" stroke-miterlimit="10" stroke-linecap="round" stroke-linejoin="round"/>
<path d="M291.525 110.268C290.432 108.88 289.156 107.129 287.28 106.838C285.58 106.572 283.932 107.66 282.918 108.944C282.302 109.724 281.361 111.4 282.81 111.83C284.566 112.352 288.947 109.386 289.029 108.912" stroke="#2E3168" stroke-miterlimit="10" stroke-linecap="round" stroke-linejoin="round"/>
<path d="M286.421 104.239C289.26 103.667 291.307 104.299 292.438 107.173C293.082 108.811 293.326 110.657 293.231 112.409C293.168 113.547 293.006 115.308 291.993 116.06C289.905 117.612 288.303 113.215 288.101 111.855C287.719 109.291 288.951 107.777 291.162 106.737" stroke="#2E3168" stroke-miterlimit="10" stroke-linecap="round" stroke-linejoin="round"/>
<path d="M293.704 104.369C295.507 107.534 297.377 111.296 296.041 115.001C294.933 118.08 292.481 117.919 289.961 116.689" stroke="#2E3168" stroke-miterlimit="10" stroke-linecap="round" stroke-linejoin="round"/>
<path d="M286.556 100.651C283.906 103.035 279.566 106.749 281.449 110.799C283.066 114.28 287.747 113.796 289.835 111.109C290.517 110.233 290.965 109.2 291.291 108.147C291.828 106.405 292.497 104.625 291.645 102.861C290.195 99.8606 286.158 105.89 285.387 106.895" stroke="#2E3168" stroke-miterlimit="10" stroke-linecap="round" stroke-linejoin="round"/>
<defs>
<linearGradient id="paint0_linear_1164_275" x1="83.4817" y1="124.491" x2="168.44" y2="100.69" gradientUnits="userSpaceOnUse">
<stop stop-color="white"/>
<stop offset="1" stop-color="#97CBEE"/>
</linearGradient>
<linearGradient id="paint1_linear_1164_275" x1="355.007" y1="94.2728" x2="393.507" y2="109.415" gradientUnits="userSpaceOnUse">
<stop stop-color="white"/>
<stop offset="1" stop-color="#97CBEE"/>
</linearGradient>
<linearGradient id="paint2_linear_1164_275" x1="124.001" y1="144" x2="385" y2="144" gradientUnits="userSpaceOnUse">
<stop stop-color="white"/>
<stop offset="1" stop-color="#97CBEE"/>
</linearGradient>
<linearGradient id="paint3_linear_1164_275" x1="340" y1="147.5" x2="135" y2="147.5" gradientUnits="userSpaceOnUse">
<stop stop-color="#408DCC"/>
<stop offset="1" stop-color="#D1E5F6"/>
</linearGradient>
<linearGradient id="paint4_linear_1164_275" x1="214.757" y1="122.545" x2="242.855" y2="144.668" gradientUnits="userSpaceOnUse">
<stop offset="0.4358" stop-color="#FFDA8C"/>
<stop offset="0.5225" stop-color="#FDCC86"/>
<stop offset="0.6976" stop-color="#F8A878"/>
<stop offset="0.9434" stop-color="#F27063"/>
<stop offset="1" stop-color="#F15F5E"/>
</linearGradient>
<linearGradient id="paint5_linear_1164_275" x1="160.11" y1="120.167" x2="182.269" y2="120.167" gradientUnits="userSpaceOnUse">
<stop stop-color="white"/>
<stop offset="1" stop-color="#97CBEE"/>
</linearGradient>
<linearGradient id="paint6_linear_1164_275" x1="156.708" y1="132.229" x2="186.195" y2="132.229" gradientUnits="userSpaceOnUse">
<stop offset="0.1047" stop-color="#F6895D"/>
<stop offset="0.9543" stop-color="#F16680"/>
</linearGradient>
<linearGradient id="paint7_linear_1164_275" x1="171.451" y1="127.92" x2="186.195" y2="127.92" gradientUnits="userSpaceOnUse">
<stop stop-color="#FCB73E"/>
<stop offset="1" stop-color="#F15F5E"/>
</linearGradient>
<linearGradient id="paint8_linear_1164_275" x1="257.09" y1="54.7693" x2="289.764" y2="54.7693" gradientUnits="userSpaceOnUse">
<stop stop-color="#409DE0"/>
<stop offset="1" stop-color="#4063E0"/>
</linearGradient>
<linearGradient id="paint9_linear_1164_275" x1="262.769" y1="54.7698" x2="269.063" y2="54.7698" gradientUnits="userSpaceOnUse">
<stop stop-color="#409DE0"/>
<stop offset="1" stop-color="#4063E0"/>
</linearGradient>
<linearGradient id="paint10_linear_1164_275" x1="326.886" y1="57.1031" x2="328.35" y2="57.1031" gradientUnits="userSpaceOnUse">
<stop stop-color="white"/>
<stop offset="1" stop-color="#97CBEE"/>
</linearGradient>
<linearGradient id="paint11_linear_1164_275" x1="326.886" y1="94.5443" x2="328.35" y2="94.5443" gradientUnits="userSpaceOnUse">
<stop stop-color="white"/>
<stop offset="1" stop-color="#97CBEE"/>
</linearGradient>
<linearGradient id="paint12_linear_1164_275" x1="342.271" y1="75.8236" x2="350.37" y2="75.8236" gradientUnits="userSpaceOnUse">
<stop stop-color="white"/>
<stop offset="1" stop-color="#97CBEE"/>
</linearGradient>
<linearGradient id="paint13_linear_1164_275" x1="304.865" y1="75.8236" x2="312.964" y2="75.8236" gradientUnits="userSpaceOnUse">
<stop stop-color="white"/>
<stop offset="1" stop-color="#97CBEE"/>
</linearGradient>
<linearGradient id="paint14_linear_1164_275" x1="327.617" y1="101.824" x2="327.617" y2="49.8235" gradientUnits="userSpaceOnUse">
<stop stop-color="#408DCC"/>
<stop offset="1" stop-color="#97CBEE"/>
</linearGradient>
<linearGradient id="paint15_linear_1164_275" x1="321.845" y1="79.4298" x2="328.351" y2="79.4298" gradientUnits="userSpaceOnUse">
<stop offset="0.1047" stop-color="#F6895D"/>
<stop offset="0.9543" stop-color="#F16680"/>
</linearGradient>
<linearGradient id="paint16_linear_1164_275" x1="248.848" y1="138.007" x2="240.082" y2="157.971" gradientUnits="userSpaceOnUse">
<stop offset="0.5161" stop-color="#B25884"/>
<stop offset="1" stop-color="#7B2D8C"/>
</linearGradient>
<linearGradient id="paint17_linear_1164_275" x1="242.231" y1="154.005" x2="287.71" y2="189.601" gradientUnits="userSpaceOnUse">
<stop offset="0.5161" stop-color="#B25884"/>
<stop offset="1" stop-color="#7B2D8C"/>
</linearGradient>
<linearGradient id="paint18_linear_1164_275" x1="248.418" y1="133.999" x2="267.282" y2="138.907" gradientUnits="userSpaceOnUse">
<stop offset="0.4358" stop-color="#FFDA8C"/>
<stop offset="0.5225" stop-color="#FDCC86"/>
<stop offset="0.6976" stop-color="#F8A878"/>
<stop offset="0.9434" stop-color="#F27063"/>
<stop offset="1" stop-color="#F15F5E"/>
</linearGradient>
<linearGradient id="paint19_linear_1164_275" x1="176.226" y1="111.517" x2="233.257" y2="129.381" gradientUnits="userSpaceOnUse">
<stop offset="0.4358" stop-color="#FFDA8C"/>
<stop offset="0.5225" stop-color="#FDCC86"/>
<stop offset="0.6976" stop-color="#F8A878"/>
<stop offset="0.9434" stop-color="#F27063"/>
<stop offset="1" stop-color="#F15F5E"/>
</linearGradient>
<linearGradient id="paint20_linear_1164_275" x1="232.782" y1="136.264" x2="263.74" y2="139.184" gradientUnits="userSpaceOnUse">
<stop offset="0.4358" stop-color="#FFDA8C"/>
<stop offset="0.5225" stop-color="#FDCC86"/>
<stop offset="0.6976" stop-color="#F8A878"/>
<stop offset="0.9434" stop-color="#F27063"/>
<stop offset="1" stop-color="#F15F5E"/>
</linearGradient>
<linearGradient id="paint21_linear_1164_275" x1="306.201" y1="246.093" x2="273.72" y2="166.589" gradientUnits="userSpaceOnUse">
<stop offset="0.2957" stop-color="#FFDA8C"/>
<stop offset="0.4039" stop-color="#FDCC86"/>
<stop offset="0.6226" stop-color="#F8A878"/>
<stop offset="0.9294" stop-color="#F27063"/>
<stop offset="1" stop-color="#F15F5E"/>
</linearGradient>
<linearGradient id="paint22_linear_1164_275" x1="174.623" y1="181.651" x2="241.838" y2="181.651" gradientUnits="userSpaceOnUse">
<stop stop-color="#408DCC"/>
<stop offset="1" stop-color="#97CBEE"/>
</linearGradient>
<linearGradient id="paint23_linear_1164_275" x1="272.954" y1="162.161" x2="333.365" y2="156.278" gradientUnits="userSpaceOnUse">
<stop offset="0.5161" stop-color="#B25884"/>
<stop offset="1" stop-color="#7B2D8C"/>
</linearGradient>
<linearGradient id="paint24_linear_1164_275" x1="226.164" y1="101.097" x2="237.992" y2="108.489" gradientUnits="userSpaceOnUse">
<stop offset="0.4358" stop-color="#FFDA8C"/>
<stop offset="0.5225" stop-color="#FDCC86"/>
<stop offset="0.6976" stop-color="#F8A878"/>
<stop offset="0.9434" stop-color="#F27063"/>
<stop offset="1" stop-color="#F15F5E"/>
</linearGradient>
<linearGradient id="paint25_linear_1164_275" x1="221.322" y1="111.879" x2="234.28" y2="122.016" gradientUnits="userSpaceOnUse">
<stop offset="0.4358" stop-color="#FFDA8C"/>
<stop offset="0.5225" stop-color="#FDCC86"/>
<stop offset="0.6976" stop-color="#F8A878"/>
<stop offset="0.9434" stop-color="#F27063"/>
<stop offset="1" stop-color="#F15F5E"/>
</linearGradient>
<linearGradient id="paint26_linear_1164_275" x1="0" y1="132.997" x2="149.997" y2="132.997" gradientUnits="userSpaceOnUse">
<stop stop-color="#409DE0"/>
<stop offset="1" stop-color="#4063E0"/>
</linearGradient>
<linearGradient id="paint27_linear_1164_275" x1="350.53" y1="132.685" x2="500.842" y2="132.685" gradientUnits="userSpaceOnUse">
<stop stop-color="#409DE0"/>
<stop offset="1" stop-color="#4063E0"/>
</linearGradient>
<linearGradient id="paint28_linear_1164_275" x1="344.235" y1="213.609" x2="344.235" y2="160.43" gradientUnits="userSpaceOnUse">
<stop stop-color="#FCB73E"/>
<stop offset="1" stop-color="#F15F5E"/>
</linearGradient>
<linearGradient id="paint29_linear_1164_275" x1="340.486" y1="172.829" x2="345.822" y2="172.829" gradientUnits="userSpaceOnUse">
<stop stop-color="#FCB73E"/>
<stop offset="1" stop-color="#F15F5E"/>
</linearGradient>
<linearGradient id="paint30_linear_1164_275" x1="350.492" y1="177.351" x2="369.84" y2="177.351" gradientUnits="userSpaceOnUse">
<stop stop-color="#408DCC"/>
<stop offset="1" stop-color="#97CBEE"/>
</linearGradient>
</defs>
</svg>
