<svg width="19" height="19" viewBox="0 0 19 19" fill="none" xmlns="http://www.w3.org/2000/svg">
<path d="M8.14014 0.486786C8.51379 0.173376 8.99837 0 9.50068 0C10.003 0 10.4876 0.173376 10.8612 0.486786L18.3255 6.74824C18.5377 6.92641 18.7074 7.14425 18.8237 7.38763C18.9399 7.631 18.9999 7.89447 19 8.16092V17.0995C19 17.6036 18.7855 18.087 18.4038 18.4434C18.022 18.7998 17.5042 19 16.9643 19H13.5714C13.0315 19 12.5137 18.7998 12.132 18.4434C11.7502 18.087 11.5357 17.6036 11.5357 17.0995V12.6651C11.5357 12.4971 11.4642 12.3359 11.337 12.2171C11.2097 12.0983 11.0371 12.0316 10.8571 12.0316H8.14286C7.96289 12.0316 7.79029 12.0983 7.66303 12.2171C7.53578 12.3359 7.46429 12.4971 7.46429 12.6651V17.0995C7.46429 17.6036 7.24981 18.087 6.86804 18.4434C6.48627 18.7998 5.96848 19 5.42857 19H2.03571C1.49581 19 0.978017 18.7998 0.596247 18.4434C0.214476 18.087 0 17.6036 0 17.0995V8.16092C0 7.62246 0.244286 7.10933 0.675857 6.74824L8.14014 0.486786ZM9.95329 1.42942C9.82876 1.32507 9.66733 1.26735 9.5 1.26735C9.33267 1.26735 9.17124 1.32507 9.04671 1.42942L1.58243 7.69087C1.51172 7.75013 1.45513 7.82259 1.41632 7.90356C1.37751 7.98454 1.35735 8.07222 1.35714 8.16092V17.0995C1.35714 17.2675 1.42864 17.4287 1.55589 17.5475C1.68315 17.6663 1.85575 17.733 2.03571 17.733H5.42857C5.60854 17.733 5.78114 17.6663 5.90839 17.5475C6.03565 17.4287 6.10714 17.2675 6.10714 17.0995V12.6651C6.10714 12.161 6.32162 11.6776 6.70339 11.3212C7.08516 10.9648 7.60295 10.7646 8.14286 10.7646H10.8571C11.397 10.7646 11.9148 10.9648 12.2966 11.3212C12.6784 11.6776 12.8929 12.161 12.8929 12.6651V17.0995C12.8929 17.2675 12.9643 17.4287 13.0916 17.5475C13.2189 17.6663 13.3915 17.733 13.5714 17.733H16.9643C17.1443 17.733 17.3169 17.6663 17.4441 17.5475C17.5714 17.4287 17.6429 17.2675 17.6429 17.0995V8.16092C17.6427 8.07222 17.6225 7.98454 17.5837 7.90356C17.5449 7.82259 17.4883 7.75013 17.4176 7.69087L9.95329 1.42942Z" fill="#409DE0"/>
</svg>
