<svg
    width="27"
    height="32"
    viewBox="0 0 27 32"
    fill="none"
    xmlns="http://www.w3.org/2000/svg"
  >
    <path
      d="M21.75 11C21.75 8.81196 20.8808 6.71354 19.3336 5.16637C17.7865 3.61919 15.688 2.75 13.5 2.75C11.312 2.75 9.21354 3.61919 7.66637 5.16637C6.11919 6.71354 5.25 8.81196 5.25 11C5.25 20.625 1.125 23.375 1.125 23.375H25.875C25.875 23.375 21.75 20.625 21.75 11Z"
      stroke="#374956"
      strokeWidth="2"
      strokeLinecap="round"
      strokeLinejoin="round"
    />
    <path
      d="M15.8786 28.875C15.6369 29.2917 15.2899 29.6376 14.8724 29.8781C14.4549 30.1186 13.9816 30.2451 13.4998 30.2451C13.0181 30.2451 12.5448 30.1186 12.1273 29.8781C11.7098 29.6376 11.3628 29.2917 11.1211 28.875"
      stroke="#374956"
      strokeWidth="2"
      strokeLinecap="round"
      strokeLinejoin="round"
    />
  </svg>