<svg width="14" height="14" viewBox="0 0 14 14" fill="none" xmlns="http://www.w3.org/2000/svg">
<path d="M4.27778 8.16667L6.22222 10.5L8.94444 7L12.4444 11.6667H1.55556L4.27778 8.16667ZM14 12.4444V1.55556C14 0.692222 13.3 0 12.4444 0H1.55556C1.143 0 0.747335 0.163888 0.455612 0.455612C0.163888 0.747335 0 1.143 0 1.55556V12.4444C0 12.857 0.163888 13.2527 0.455612 13.5444C0.747335 13.8361 1.143 14 1.55556 14H12.4444C12.857 14 13.2527 13.8361 13.5444 13.5444C13.8361 13.2527 14 12.857 14 12.4444Z" fill="#A2A2A2"/>
</svg>
