<svg width="19" height="22" viewBox="0 0 19 22" fill="none" xmlns="http://www.w3.org/2000/svg">
<path d="M0.791667 0.381775C1.00163 0.381775 1.20299 0.472417 1.35146 0.633761C1.49993 0.795105 1.58333 1.01393 1.58333 1.24211V18.4488C1.58333 18.677 1.66674 18.8958 1.81521 19.0572C1.96367 19.2185 2.16504 19.3091 2.375 19.3091H18.2083C18.4183 19.3091 18.6197 19.3998 18.7681 19.5611C18.9166 19.7225 19 19.9413 19 20.1695C19 20.3977 18.9166 20.6165 18.7681 20.7778C18.6197 20.9392 18.4183 21.0298 18.2083 21.0298H2.375C1.74511 21.0298 1.14102 20.7579 0.695621 20.2739C0.250223 19.7898 0 19.1333 0 18.4488V1.24211C0 1.01393 0.0834077 0.795105 0.231874 0.633761C0.38034 0.472417 0.581704 0.381775 0.791667 0.381775ZM13.4583 5.54379C13.2484 5.54379 13.047 5.45314 12.8985 5.2918C12.7501 5.13045 12.6667 4.91163 12.6667 4.68345C12.6667 4.45528 12.7501 4.23645 12.8985 4.0751C13.047 3.91376 13.2484 3.82312 13.4583 3.82312H18.2083C18.4183 3.82312 18.6197 3.91376 18.7681 4.0751C18.9166 4.23645 19 4.45528 19 4.68345V9.97795C19 10.2061 18.9166 10.425 18.7681 10.5863C18.6197 10.7476 18.4183 10.8383 18.2083 10.8383C17.9984 10.8383 17.797 10.7476 17.6485 10.5863C17.5001 10.425 17.4167 10.2061 17.4167 9.97795V6.7603L11.6438 13.0356C11.5703 13.1157 11.4829 13.1793 11.3868 13.2226C11.2906 13.266 11.1875 13.2883 11.0833 13.2883C10.9792 13.2883 10.8761 13.266 10.7799 13.2226C10.6837 13.1793 10.5964 13.1157 10.5228 13.0356L7.91667 10.2016L4.51883 13.8959C4.37018 14.0575 4.16856 14.1482 3.95833 14.1482C3.74811 14.1482 3.54649 14.0575 3.39783 13.8959C3.24918 13.7344 3.16567 13.5153 3.16567 13.2868C3.16567 13.0583 3.24918 12.8392 3.39783 12.6777L7.35617 8.37601C7.42971 8.29589 7.51707 8.23232 7.61325 8.18895C7.70943 8.14558 7.81254 8.12325 7.91667 8.12325C8.0208 8.12325 8.12391 8.14558 8.22009 8.18895C8.31627 8.23232 8.40363 8.29589 8.47717 8.37601L11.0833 11.21L16.2973 5.54379H13.4583Z" fill="#374956"/>
</svg>
